<svg id="visual" viewBox="0 0 960 250" width="960" height="250" xmlns="http://www.w3.org/2000/svg" xmlns:xlink="http://www.w3.org/1999/xlink" version="1.1"><path d="M0 146L17.8 138.8C35.7 131.7 71.3 117.3 106.8 119.5C142.3 121.7 177.7 140.3 213.2 157.3C248.7 174.3 284.3 189.7 320 183.7C355.7 177.7 391.3 150.3 426.8 145.2C462.3 140 497.7 157 533.2 173.5C568.7 190 604.3 206 640 205.3C675.7 204.7 711.3 187.3 746.8 185.5C782.3 183.7 817.7 197.3 853.2 189.3C888.7 181.3 924.3 151.7 942.2 136.8L960 122" fill="none" stroke-linecap="round" stroke-linejoin="miter" stroke="#3b82f6" stroke-width="40"></path></svg>