<svg id="Component_1_1" data-name="Component 1 – 1" xmlns="http://www.w3.org/2000/svg" width="76" height="70" viewBox="0 0 76 70">
  <g id="Polygon_1" data-name="Polygon 1" transform="translate(76 70) rotate(180)" fill="none" stroke-linecap="round" stroke-dasharray="1">
    <path d="M38,0,76,70H0Z" stroke="none"/>
    <path d="M 38 0 C 38 0 38.00787353515625 0.01450347900390625 38.02158737182617 0.039764404296875 C 38.02158737182617 0.039764404296875 38.02158737182617 0.039764404296875 38.02158737182617 0.039764404296875 L 39.43252563476563 2.638862609863281 C 39.51853942871094 2.798286437988281 39.55681991577148 2.970779418945313 39.55224609375 3.139816284179688 C 39.69704818725586 3.228401184082031 39.82124710083008 3.355117797851563 39.90813064575195 3.514976501464844 L 39.9570426940918 3.605079650878906 C 39.95712661743164 3.605232238769531 39.95722198486328 3.60540771484375 39.95730590820313 3.605560302734375 L 39.95798873901367 3.606819152832031 C 39.95805358886719 3.606941223144531 39.95812225341797 3.607070922851563 39.95818710327148 3.607192993164063 L 39.96033096313477 3.611137390136719 C 39.96059799194336 3.611625671386719 39.96087265014648 3.612136840820313 39.96113967895508 3.612625122070313 L 39.96131896972656 3.612960815429688 C 39.96184539794922 3.613929748535156 39.96237564086914 3.614906311035156 39.96290969848633 3.615882873535156 L 39.9633674621582 3.616729736328125 C 39.96442794799805 3.618682861328125 39.96547317504883 3.620613098144531 39.96655654907227 3.622604370117188 L 39.96724319458008 3.623870849609375 C 40.09484481811523 3.858924865722656 40.38545608520508 4.394264221191406 40.38545608520508 4.394264221191406 C 40.47234725952148 4.554328918457031 40.51102066040039 4.727676391601563 40.50642776489258 4.89752197265625 C 40.65071868896484 4.985801696777344 40.77457427978516 5.111968994140625 40.86141204833984 5.271026611328125 L 41.23903274536133 5.966644287109375 C 41.23915481567383 5.966865539550781 41.23927688598633 5.967086791992188 41.23939895629883 5.967315673828125 L 41.23972702026367 5.967918395996094 C 41.23993301391602 5.968299865722656 41.24013900756836 5.968673706054688 41.2403450012207 5.96905517578125 L 41.24124908447266 5.970718383789063 C 41.2413444519043 5.970901489257813 41.24145126342773 5.971099853515625 41.24155044555664 5.971275329589844 L 41.24372482299805 5.97528076171875 C 41.24423599243164 5.976226806640625 41.24472808837891 5.977127075195313 41.2452392578125 5.978073120117188 L 41.24559020996094 5.978721618652344 C 41.24599456787109 5.979461669921875 41.24640655517578 5.980224609375 41.24680709838867 5.980964660644531 L 41.24810791015625 5.983360290527344 C 41.24868392944336 5.984420776367188 41.24927139282227 5.985504150390625 41.24984359741211 5.986557006835938 L 41.24995803833008 5.986763000488281 C 41.25064849853516 5.988037109375 41.25130081176758 5.989234924316406 41.25198364257813 5.990493774414063 L 41.25226593017578 5.991020202636719 C 41.25360870361328 5.993484497070313 41.25494766235352 5.995956420898438 41.25626754760742 5.998390197753906 L 41.25677871704102 5.99932861328125 C 41.25958251953125 6.004493713378906 41.2623405456543 6.009571075439453 41.26503753662109 6.014541625976563 L 41.26514434814453 6.014736175537109 C 41.30985260009766 6.097095489501953 41.33964538574219 6.1519775390625 41.33964538574219 6.1519775390625 C 41.42653656005859 6.312042236328125 41.4652099609375 6.485378265380859 41.46061325073242 6.655223846435547 C 41.60528182983398 6.743732452392578 41.72938919067383 6.870304107666016 41.81625747680664 7.029949188232422 L 41.9339485168457 7.246746063232422 C 41.93402481079102 7.24688720703125 41.93408966064453 7.24700927734375 41.93416976928711 7.247150421142578 L 41.93819427490234 7.254570007324219 C 41.93943023681641 7.256847381591797 41.94067001342773 7.259132385253906 41.94191741943359 7.261428833007813 L 41.94220733642578 7.261959075927734 C 41.9437255859375 7.264759063720703 41.94526290893555 7.267593383789063 41.94680023193359 7.270423889160156 L 41.94746398925781 7.271644592285156 C 42.08871078491211 7.531833648681641 42.2938232421875 7.909679412841797 42.2938232421875 7.909679412841797 C 42.38073348999023 8.069770812988281 42.41941070556641 8.243068695068359 42.41479873657227 8.412944793701172 C 42.55906295776367 8.501209259033203 42.682861328125 8.62725830078125 42.76969528198242 8.786277770996094 L 43.21778106689453 9.611701965332031 C 43.21779632568359 9.611732482910156 43.21781539916992 9.611766815185547 43.21783065795898 9.611793518066406 L 43.21836853027344 9.612781524658203 C 43.21870422363281 9.6134033203125 43.21903610229492 9.614013671875 43.21936798095703 9.614627838134766 L 43.21990203857422 9.615608215332031 C 43.2202033996582 9.616161346435547 43.22050094604492 9.616714477539063 43.22079849243164 9.617259979248047 L 43.22114562988281 9.617900848388672 C 43.2213249206543 9.618232727050781 43.22149276733398 9.618541717529297 43.22167205810547 9.618869781494141 L 43.22171020507813 9.618938446044922 C 43.22183227539063 9.619159698486328 43.22193908691406 9.619361877441406 43.22206115722656 9.619583129882813 L 43.22308349609375 9.621467590332031 C 43.22322845458984 9.621734619140625 43.22336578369141 9.621986389160156 43.2235107421875 9.62225341796875 L 43.22384643554688 9.622875213623047 C 43.22396850585938 9.623104095458984 43.22408676147461 9.623317718505859 43.22420883178711 9.623542785644531 L 43.22541809082031 9.625770568847656 C 43.22564315795898 9.626186370849609 43.22586822509766 9.626602172851563 43.22609329223633 9.62701416015625 L 43.23008728027344 9.634372711181641 C 43.23075103759766 9.635597229003906 43.23139953613281 9.636787414550781 43.23202896118164 9.637947082519531 L 43.23223876953125 9.638332366943359 C 43.233642578125 9.640918731689453 43.23495483398438 9.643333435058594 43.23618316650391 9.645599365234375 L 43.23625946044922 9.645740509033203 C 43.23876571655273 9.650356292724609 43.24089813232422 9.654285430908203 43.24263000488281 9.657478332519531 L 43.24266815185547 9.657550811767578 C 43.24615097045898 9.663963317871094 43.24801254272461 9.667388916015625 43.24801254272461 9.667388916015625 L 43.24801254272461 9.667388916015625 C 43.33490371704102 9.82745361328125 43.37357711791992 10.00079727172852 43.36898040771484 10.17064666748047 C 43.513916015625 10.25931930541992 43.63821029663086 10.38618087768555 43.72510147094727 10.54624557495117 C 43.72510147094727 10.54624557495117 44.20218658447266 11.42509841918945 44.20218658447266 11.42509841918945 C 44.28908538818359 11.58515930175781 44.3277587890625 11.75849914550781 44.32316589355469 11.9283447265625 C 44.46737670898438 12.01657485961914 44.59114837646484 12.14260101318359 44.677978515625 12.30153274536133 L 45.15654373168945 13.18310928344727 C 45.24333190917969 13.34309768676758 45.28194046020508 13.51630401611328 45.27734375 13.68605804443359 C 45.42227935791016 13.77473068237305 45.54657745361328 13.90159225463867 45.63346862792969 14.0616569519043 C 45.63346862792969 14.0616569519043 45.75273895263672 14.28136825561523 45.87201690673828 14.50108337402344 L 45.87201690673828 14.50108337402344 C 45.87374877929688 14.50427627563477 45.87548065185547 14.50746154785156 45.87721252441406 14.51065063476563 L 45.8780517578125 14.51219940185547 C 45.87835693359375 14.51276397705078 45.87864685058594 14.5132942199707 45.87895202636719 14.51385498046875 L 45.87905883789063 14.51405715942383 C 45.87934875488281 14.51459503173828 45.879638671875 14.51512908935547 45.87993240356445 14.51566696166992 L 46.11148071289063 14.94220352172852 C 46.19773101806641 15.10179901123047 46.23611450195313 15.27451705932617 46.23153686523438 15.44376754760742 C 46.37647247314453 15.53244018554688 46.50076293945313 15.6593017578125 46.58765411376953 15.81936645507813 C 46.58765411376953 15.81936645507813 46.67722320556641 15.9843635559082 46.77874374389648 16.17136764526367 L 46.77936172485352 16.17250823974609 C 46.77954864501953 16.1728515625 46.77970123291016 16.17313385009766 46.77988815307617 16.17347717285156 L 46.78623199462891 16.1851692199707 C 46.78634643554688 16.18537902832031 46.78645706176758 16.18558120727539 46.78657531738281 16.185791015625 L 46.78879928588867 16.18989181518555 C 46.78914642333984 16.19052886962891 46.78952026367188 16.19122695922852 46.78987121582031 16.19186401367188 L 46.79125213623047 16.19441223144531 C 46.79135131835938 16.19459915161133 46.79144287109375 16.19475936889648 46.79154205322266 16.19494247436523 L 46.79335403442383 16.19828414916992 C 46.79404449462891 16.19955825805664 46.79473876953125 16.20083236694336 46.79543304443359 16.20211029052734 L 46.79559326171875 16.20240783691406 C 46.79627227783203 16.20365905761719 46.79695892333984 16.20492553710938 46.79763793945313 16.20618057250977 L 46.79998016357422 16.21049118041992 C 46.80018615722656 16.21086502075195 46.80038070678711 16.21122741699219 46.80058288574219 16.21160125732422 L 47.06507873535156 16.69882583618164 C 47.15174865722656 16.85874938964844 47.19032287597656 17.03182601928711 47.18571472167969 17.20148086547852 C 47.33065032958984 17.29015731811523 47.45494079589844 17.4170036315918 47.54183197021484 17.57706832885742 C 47.54183197021484 17.57706832885742 47.63958740234375 17.75714111328125 47.74661254882813 17.95428848266602 L 47.74752044677734 17.95595550537109 C 47.74806594848633 17.95696640014648 47.74859619140625 17.95793914794922 47.7491455078125 17.95895004272461 L 47.74995803833008 17.96044921875 C 47.75062561035156 17.96167373657227 47.75128173828125 17.96288299560547 47.75194549560547 17.96410751342773 L 48.02001571655273 18.45792388916016 C 48.10612869262695 18.6174201965332 48.14447784423828 18.79005432128906 48.13990020751953 18.95917892456055 C 48.28483581542969 19.0478515625 48.40913009643555 19.17471313476563 48.49602127075195 19.33477783203125 L 48.49602127075195 19.33477783203125 C 48.49602127075195 19.33477783203125 48.97311019897461 20.2136344909668 48.97311019897461 20.2136344909668 C 49.06000518798828 20.37369918823242 49.09867858886719 20.54703521728516 49.09408187866211 20.71688079833984 C 49.23901748657227 20.8055534362793 49.36330795288086 20.93241500854492 49.45019912719727 21.09247589111328 C 49.45019912719727 21.09247589111328 49.52274322509766 21.22610855102539 49.61125946044922 21.38916397094727 L 49.61231231689453 21.3911018371582 C 49.61238098144531 21.39122772216797 49.61246109008789 21.39137649536133 49.61252975463867 21.39150238037109 L 49.61355590820313 21.39339447021484 C 49.61369323730469 21.39365005493164 49.61382293701172 21.39388275146484 49.61396026611328 21.39413833618164 L 49.61452484130859 21.39518356323242 C 49.61512756347656 21.39628219604492 49.61569976806641 21.3973388671875 49.61629486083984 21.39844131469727 L 49.61872863769531 21.40292358398438 C 49.61888122558594 21.40320587158203 49.61906433105469 21.40353775024414 49.61921691894531 21.4038200378418 L 49.92855072021484 21.9736442565918 C 50.01456069946289 22.13306427001953 50.05284118652344 22.30555725097656 50.04827117919922 22.47459030151367 C 50.19306945800781 22.56318283081055 50.31726837158203 22.68989562988281 50.40415191650391 22.84975051879883 L 50.45306396484375 22.93985748291016 C 50.45314788818359 22.94001388549805 50.45324325561523 22.940185546875 50.45332717895508 22.94033813476563 L 50.45401000976563 22.94159698486328 C 50.45407485961914 22.94171905517578 50.45414733886719 22.94184875488281 50.45420837402344 22.94196701049805 L 50.45635223388672 22.94591522216797 C 50.45661926269531 22.94640350341797 50.45689392089844 22.9469108581543 50.45716094970703 22.94740295410156 L 50.45734405517578 22.94773483276367 C 50.45787048339844 22.94870758056641 50.45839691162109 22.94968414306641 50.45893096923828 22.95066452026367 L 50.45938873291016 22.95150756835938 C 50.46044921875 22.95346069335938 50.46149444580078 22.95538711547852 50.46257781982422 22.95738220214844 L 50.46326446533203 22.95864868164063 C 50.59086608886719 23.19370269775391 50.88147735595703 23.72904586791992 50.88147735595703 23.72904586791992 C 50.96836853027344 23.88911056518555 51.00704193115234 24.06245422363281 51.00244903564453 24.23230361938477 C 51.14738464355469 24.32097625732422 51.27167510986328 24.44783401489258 51.35856628417969 24.6078987121582 C 51.35856628417969 24.6078987121582 51.50914764404297 24.88527679443359 51.64111328125 25.12836456298828 L 51.64218902587891 25.13034439086914 C 51.64235687255859 25.13066101074219 51.64252090454102 25.13095855712891 51.64269256591797 25.13127517700195 L 51.83708190917969 25.48936080932617 C 51.92299270629883 25.64870834350586 51.96120452880859 25.82106399536133 51.95663452148438 25.9900016784668 C 52.10130310058594 26.07851028442383 52.22541046142578 26.20508193969727 52.31227874755859 26.36472702026367 L 52.42996978759766 26.58152389526367 C 52.43004608154297 26.5816650390625 52.43011474609375 26.581787109375 52.43019104003906 26.58192825317383 L 52.43421936035156 26.58934783935547 C 52.43545532226563 26.59162521362305 52.43669128417969 26.59391021728516 52.43794250488281 26.59620666503906 L 52.43822860717773 26.59673690795898 C 52.43975067138672 26.59953689575195 52.4412841796875 26.60237121582031 52.44282531738281 26.60520172119141 L 52.44348526000977 26.60642242431641 C 52.58473205566406 26.86661148071289 52.78984451293945 27.24445724487305 52.78984451293945 27.24445724487305 C 52.87673568725586 27.40451812744141 52.91541290283203 27.57786560058594 52.91081619262695 27.74771118164063 C 53.05508422851563 27.83597564697266 53.17888641357422 27.9620475769043 53.26572036743164 28.12106704711914 L 53.71380615234375 28.94647979736328 C 53.71382141113281 28.94651031494141 53.71383666992188 28.9465446472168 53.71385192871094 28.94657135009766 L 53.71438980102539 28.94755935668945 C 53.71472930908203 28.94818115234375 53.71505737304688 28.94879150390625 53.71539306640625 28.94940567016602 L 53.71592330932617 28.95038604736328 C 53.71622467041016 28.9509391784668 53.71652221679688 28.95149230957031 53.71681976318359 28.9520378112793 L 53.71717071533203 28.95267868041992 C 53.71734619140625 28.95301055908203 53.71751403808594 28.95331954956055 53.71769714355469 28.95364761352539 L 53.71773147583008 28.95371627807617 C 53.71785354614258 28.95393753051758 53.71796417236328 28.95413970947266 53.71808242797852 28.95436096191406 L 53.7191047668457 28.95624542236328 C 53.7192497253418 28.95651245117188 53.71938705444336 28.95676422119141 53.71953201293945 28.95703125 L 53.71987152099609 28.9576530456543 C 53.71999359130859 28.95788192749023 53.72010803222656 28.95809555053711 53.72023010253906 28.95832061767578 L 53.72143936157227 28.96054840087891 C 53.72166442871094 28.96096420288086 53.72189331054688 28.96138000488281 53.72211456298828 28.96178817749023 L 53.72611236572266 28.96915054321289 C 53.72677612304688 28.97037506103516 53.72742080688477 28.97156143188477 53.72805023193359 28.97272491455078 L 53.7282600402832 28.97311019897461 C 53.72966384887695 28.9756965637207 53.73097610473633 28.97811126708984 53.73220443725586 28.98037719726563 L 53.73228454589844 28.98051834106445 C 53.73478698730469 28.98513412475586 53.73691940307617 28.98906326293945 53.73865509033203 28.99225616455078 L 53.73869323730469 28.99232864379883 C 53.74217224121094 28.99874114990234 53.74403381347656 29.00216674804688 53.74403381347656 29.00216674804688 L 53.74403381347656 29.00216674804688 C 53.83092498779297 29.1622314453125 53.86959838867188 29.33557510375977 53.8650016784668 29.50542449951172 C 54.00993728637695 29.59409713745117 54.13423156738281 29.7209587097168 54.22112274169922 29.88102340698242 C 54.22112274169922 29.88102340698242 54.69821166992188 30.75986480712891 54.69821166992188 30.75986480712891 C 54.78512191772461 30.91996002197266 54.82379913330078 31.09325790405273 54.81918716430664 31.26313781738281 C 54.96339797973633 31.35136795043945 55.08717346191406 31.47739410400391 55.17400360107422 31.63632583618164 L 55.65256500244141 32.51788711547852 C 55.73935699462891 32.67787551879883 55.77796173095703 32.85108184814453 55.77336883544922 33.02083206176758 C 55.91830444335938 33.1095085144043 56.04259490966797 33.23637008666992 56.12948608398438 33.39643478393555 C 56.12948608398438 33.39643478393555 56.60657501220703 34.27528762817383 56.60657501220703 34.27528762817383 C 56.69347381591797 34.43535232543945 56.73214721679688 34.60868835449219 56.72755432128906 34.77853393554688 C 56.87171173095703 34.86672973632813 56.99544906616211 34.99270629882813 57.082275390625 35.15155410766602 L 57.56110382080078 36.03361129760742 C 57.64775848388672 36.19350051879883 57.68632507324219 36.36661529541016 57.68173217773438 36.5362434387207 C 57.82666778564453 36.62491989135742 57.95096588134766 36.75178146362305 58.03785705566406 36.91184616088867 C 58.03785705566406 36.91184616088867 58.13212585449219 37.08549118041992 58.23683929443359 37.27838897705078 L 58.51604461669922 37.79271697998047 C 58.60215759277344 37.95221328735352 58.6405029296875 38.12483215332031 58.63592529296875 38.29395294189453 C 58.78086090087891 38.38262939453125 58.9051513671875 38.50949096679688 58.99204254150391 38.6695556640625 L 58.99204254150391 38.6695556640625 C 58.99204254150391 38.6695556640625 58.99295043945313 38.67121887207031 58.99467468261719 38.67440414428711 L 58.99480819702148 38.67464828491211 C 58.99488830566406 38.67479705810547 58.99496841430664 38.67494201660156 58.99505233764648 38.67509460449219 L 58.99530792236328 38.67556762695313 C 58.99578094482422 38.67644119262695 58.99630737304688 38.67740631103516 58.99687957763672 38.67845916748047 L 58.99695205688477 38.67859649658203 C 58.99703979492188 38.67875671386719 58.99712371826172 38.67891693115234 58.99721527099609 38.67908096313477 L 58.99728012084961 38.67919921875 C 58.99828338623047 38.68105316162109 58.99943542480469 38.68316650390625 59.00070953369141 38.68551635742188 L 59.00075531005859 38.68559646606445 C 59.00166320800781 38.68727493286133 59.00265502929688 38.6890983581543 59.00369644165039 38.69101715087891 L 59.00420379638672 38.69195556640625 C 59.00437927246094 38.69227600097656 59.00455474853516 38.69260406494141 59.00473785400391 38.69293212890625 L 59.00482177734375 38.69309616088867 C 59.0057373046875 38.69477844238281 59.00669860839844 38.69655609130859 59.00770568847656 38.69840240478516 L 59.00808715820313 38.69911193847656 C 59.0084228515625 38.69972991943359 59.00875854492188 38.70034790039063 59.00910568237305 38.70098495483398 L 59.01462554931641 38.71115112304688 C 59.01467895507813 38.71124649047852 59.01472473144531 38.71133422851563 59.01477813720703 38.71143341064453 L 59.46963500976563 39.54933166503906 C 59.55619049072266 39.70914840698242 59.59468841552734 39.88212585449219 59.59010314941406 40.05165863037109 C 59.73503875732422 40.14032745361328 59.85932922363281 40.26718902587891 59.94622039794922 40.42725372314453 C 59.94622039794922 40.42725372314453 60.01521682739258 40.55435180664063 60.10074234008789 40.71189117431641 L 60.42458343505859 41.30844116210938 C 60.51059341430664 41.46785736083984 60.54886627197266 41.64033508300781 60.54428863525391 41.80936431884766 C 60.68909072875977 41.89795684814453 60.81328582763672 42.02466583251953 60.90016937255859 42.18451690673828 L 60.96812057495117 42.3096923828125 C 60.96827697753906 42.30998229980469 60.96846389770508 42.31032562255859 60.96862030029297 42.31061935424805 L 60.96881484985352 42.31097412109375 C 60.97041320800781 42.31391906738281 60.9720344543457 42.31690979003906 60.97367477416992 42.31992340087891 L 60.97479629516602 42.32199096679688 C 61.10892105102539 42.56906890869141 61.37749862670898 43.06381988525391 61.37749862670898 43.06381988525391 C 61.46439361572266 43.22388458251953 61.50306701660156 43.39722442626953 61.49847030639648 43.56707000732422 C 61.64340591430664 43.65574264526367 61.76769638061523 43.78260040283203 61.85458755493164 43.94266510009766 C 61.85458755493164 43.94266510009766 61.90285110473633 44.03157043457031 61.96867370605469 44.15282440185547 L 61.96934509277344 44.154052734375 C 61.96943283081055 44.15421676635742 61.96952056884766 44.15438079833984 61.96960830688477 44.154541015625 L 61.97050857543945 44.15619659423828 C 61.97063446044922 44.15643310546875 61.97076034545898 44.15666198730469 61.97088623046875 44.15689849853516 L 62.33311462402344 44.82416152954102 C 62.41900634765625 44.98351287841797 62.45724487304688 45.15585708618164 62.45265579223633 45.32479095458984 C 62.59732437133789 45.41329956054688 62.7214241027832 45.53984069824219 62.80829238891602 45.69948577880859 L 62.94971084594727 45.95999526977539 C 62.94989776611328 45.96034240722656 62.9500732421875 45.96066284179688 62.95026397705078 45.96100616455078 L 62.95197677612305 45.96416473388672 C 62.9523811340332 45.96491241455078 62.95275115966797 45.96559906005859 62.95315933227539 45.96634674072266 L 62.9533576965332 45.96671295166016 C 63.09376525878906 46.22535705566406 63.28586578369141 46.57923126220703 63.28586578369141 46.57923126220703 C 63.37275695800781 46.73929595947266 63.41143417358398 46.91264343261719 63.40683746337891 47.08248901367188 C 63.55177307128906 47.17116546630859 63.67606353759766 47.29802703857422 63.76295471191406 47.45809173583984 C 63.76295471191406 47.45809173583984 63.89571762084961 47.70264434814453 64.02117919921875 47.93375015258789 L 64.24161529541016 48.33981323242188 C 64.32742309570313 48.49908447265625 64.36559295654297 48.67134857177734 64.36102294921875 48.84019088745117 C 64.50555419921875 48.92861938476563 64.62955474853516 49.05500793457031 64.71641540527344 49.21444702148438 L 64.92546081542969 49.59954071044922 C 64.92570495605469 49.59999084472656 64.92592620849609 49.60038757324219 64.92617034912109 49.6008415222168 L 64.92941284179688 49.6068115234375 C 64.92974853515625 49.60742568969727 64.93006896972656 49.60802841186523 64.93040466308594 49.608642578125 L 64.93069458007813 49.60917663574219 C 64.9315185546875 49.61069488525391 64.93234252929688 49.61220550537109 64.93316650390625 49.61372756958008 L 64.93354797363281 49.61442947387695 C 65.05973052978516 49.84687042236328 65.19422912597656 50.09464263916016 65.19422912597656 50.09464263916016 C 65.2811279296875 50.25470733642578 65.31980133056641 50.42805480957031 65.31520080566406 50.597900390625 C 65.45941925048828 50.68613052368164 65.58319091796875 50.81215667724609 65.67002105712891 50.97108840942383 L 66.14859008789063 51.85266876220703 C 66.23538208007813 52.01265716552734 66.27398681640625 52.18585968017578 66.26939392089844 52.35561370849609 C 66.41432189941406 52.44428253173828 66.53861999511719 52.57114410400391 66.62551116943359 52.73120880126953 C 66.62551116943359 52.73120880126953 67.10260009765625 53.61005401611328 67.10260009765625 53.61005401611328 C 67.18950653076172 53.77014923095703 67.22817993164063 53.94344711303711 67.22357177734375 54.11332321166992 C 67.36772918701172 54.20152282714844 67.49147796630859 54.32749938964844 67.57830810546875 54.48635101318359 L 68.05712127685547 55.36838531494141 C 68.14377593994141 55.52827835083008 68.18235015869141 55.70139312744141 68.17775726318359 55.87102127075195 C 68.32269287109375 55.95969390869141 68.44698333740234 56.08655548095703 68.53387451171875 56.24662017822266 C 68.53387451171875 56.24662017822266 69.01096343994141 57.1254768371582 69.01096343994141 57.1254768371582 C 69.09786224365234 57.28554153442383 69.13653564453125 57.45887756347656 69.13194274902344 57.62872314453125 C 69.27604675292969 57.71688461303711 69.39975738525391 57.84282684326172 69.48657989501953 58.00159454345703 L 69.96566009521484 58.88410949707031 C 70.05221557617188 59.04392623901367 70.09071350097656 59.21689987182617 70.08612060546875 59.38643264770508 C 70.23105621337891 59.47510528564453 70.35535430908203 59.60196685791016 70.44224548339844 59.76203155517578 C 70.44224548339844 59.76203155517578 70.91933441162109 60.64088821411133 70.91933441162109 60.64088821411133 C 71.0062255859375 60.80095291137695 71.04490661621094 60.97429656982422 71.04030609130859 61.14414215087891 C 71.18511199951172 61.23273468017578 71.30931091308594 61.35944366455078 71.39618682861328 61.51929473876953 L 71.87419128417969 62.39982986450195 C 71.96060943603516 62.55954742431641 71.99907684326172 62.73243713378906 71.99449157714844 62.90184783935547 C 72.13942718505859 62.99051666259766 72.26371765136719 63.11737823486328 72.35060882568359 63.27744293212891 C 72.35060882568359 63.27744293212891 72.39887237548828 63.36634826660156 72.46469879150391 63.48760223388672 L 72.46536254882813 63.48883056640625 C 72.4654541015625 63.48899459838867 72.46554565429688 63.48915481567383 72.46562957763672 63.48931884765625 L 72.46652984619141 63.49097442626953 C 72.46665954589844 63.4912109375 72.46678161621094 63.49143981933594 72.46691131591797 63.49167251586914 L 72.82913970947266 64.158935546875 C 72.91501617431641 64.31826019287109 72.9532470703125 64.49065399169922 72.94867706298828 64.65955352783203 C 73.09334564208984 64.74806213378906 73.21744537353516 64.87461853027344 73.30431365966797 65.03426361083984 L 73.44573211669922 65.29476928710938 C 73.4459228515625 65.29512023925781 73.44609832763672 65.29544067382813 73.44628143310547 65.29578399658203 L 73.447998046875 65.29894256591797 C 73.44840240478516 65.29969024658203 73.44877624511719 65.30037689208984 73.44918060302734 65.30112457275391 L 73.44937896728516 65.30149078369141 C 73.58978271484375 65.56013488769531 73.78189086914063 65.91400909423828 73.78189086914063 65.91400909423828 C 73.86878204345703 66.07407379150391 73.90745544433594 66.24741363525391 73.90286254882813 66.41725921630859 C 74.04779815673828 66.50592803955078 74.17208862304688 66.63278961181641 74.25897979736328 66.79285430908203 C 74.25897979736328 66.79285430908203 74.28514099121094 66.84104919433594 74.32521820068359 66.91487884521484 L 74.32550048828125 66.91539001464844 C 74.32572937011719 66.91581726074219 74.32595062255859 66.91622924804688 74.32618713378906 66.91665649414063 L 74.32640838623047 66.91706848144531 C 74.32664489746094 66.91751098632813 74.32689666748047 66.91796112060547 74.32714080810547 66.91841125488281 L 74.32756805419922 66.91920471191406 C 74.32789611816406 66.91981506347656 74.32822418212891 66.92041778564453 74.32855987548828 66.92102813720703 L 74.73763275146484 67.67459106445313 C 74.79390716552734 67.77902984619141 74.82968139648438 67.88901519775391 74.84636688232422 68 L 74.91428375244141 68 L 75.97123718261719 69.947021484375 C 75.91872406005859 69.96487426757813 75.86427307128906 69.97847747802734 75.80824279785156 69.9874267578125 C 75.80789184570313 69.99161529541016 75.80752563476563 69.99581909179688 75.80712890625 70 L 73.72431182861328 70 L 73.72286224365234 69.99732971191406 C 73.69853973388672 69.99909973144531 73.67401123046875 70 73.64923095703125 70 C 73.64923095703125 70 72.64923095703125 70 72.64923095703125 70 C 72.46710205078125 70 72.29631042480469 69.95128631591797 72.14923095703125 69.86621856689453 C 72.00215148925781 69.95128631591797 71.83135986328125 70 71.64923095703125 70 C 71.64923095703125 70 70.64923095703125 70 70.64923095703125 70 C 70.46710205078125 70 70.29631042480469 69.95128631591797 70.14923095703125 69.86621856689453 C 70.00215148925781 69.95128631591797 69.83135986328125 70 69.64923095703125 70 C 69.64923095703125 70 68.64923095703125 70 68.64923095703125 70 C 68.46710205078125 70 68.29631042480469 69.95128631591797 68.14923095703125 69.86621856689453 C 68.00215148925781 69.95128631591797 67.83135986328125 70 67.64923095703125 70 C 67.64923095703125 70 66.64923095703125 70 66.64923095703125 70 C 66.46710205078125 70 66.29631042480469 69.95128631591797 66.14923095703125 69.86621856689453 C 66.00215148925781 69.95128631591797 65.83135986328125 70 65.64923095703125 70 C 65.64923095703125 70 64.64923095703125 70 64.64923095703125 70 C 64.46710205078125 70 64.29631042480469 69.95128631591797 64.14923095703125 69.86621856689453 C 64.00215148925781 69.95128631591797 63.83135986328125 70 63.64923095703125 70 C 63.64923095703125 70 62.64923095703125 70 62.64923095703125 70 C 62.46710205078125 70 62.29631042480469 69.95128631591797 62.14923095703125 69.86621856689453 C 62.00215148925781 69.95128631591797 61.83135986328125 70 61.64923095703125 70 C 61.64923095703125 70 60.64923095703125 70 60.64923095703125 70 C 60.46710205078125 70 60.29631042480469 69.95128631591797 60.14923095703125 69.86621856689453 C 60.00215148925781 69.95128631591797 59.83135986328125 70 59.64923095703125 70 C 59.64923095703125 70 58.64923095703125 70 58.64923095703125 70 C 58.46710205078125 70 58.29631042480469 69.95128631591797 58.14923095703125 69.86621856689453 C 58.00215148925781 69.95128631591797 57.83135986328125 70 57.64923095703125 70 C 57.64923095703125 70 56.64923095703125 70 56.64923095703125 70 C 56.46710205078125 70 56.29631042480469 69.95128631591797 56.14923095703125 69.86621856689453 C 56.00215148925781 69.95128631591797 55.83135986328125 70 55.64923095703125 70 C 55.64923095703125 70 54.64923095703125 70 54.64923095703125 70 C 54.46710205078125 70 54.29631042480469 69.95128631591797 54.14923095703125 69.86621856689453 C 54.00215148925781 69.95128631591797 53.83135986328125 70 53.64923095703125 70 C 53.64923095703125 70 52.64923095703125 70 52.64923095703125 70 C 52.46710205078125 70 52.29631042480469 69.95128631591797 52.14923095703125 69.86621856689453 C 52.00215148925781 69.95128631591797 51.83135986328125 70 51.64923095703125 70 C 51.64923095703125 70 50.64923095703125 70 50.64923095703125 70 C 50.46710205078125 70 50.29631042480469 69.95128631591797 50.14923095703125 69.86621856689453 C 50.00215148925781 69.95128631591797 49.83135986328125 70 49.64923095703125 70 C 49.64923095703125 70 48.64923095703125 70 48.64923095703125 70 C 48.46710205078125 70 48.29631042480469 69.95128631591797 48.14923095703125 69.86621856689453 C 48.00215148925781 69.95128631591797 47.83135986328125 70 47.64923095703125 70 C 47.64923095703125 70 46.64923095703125 70 46.64923095703125 70 C 46.46710205078125 70 46.29631042480469 69.95128631591797 46.14923095703125 69.86621856689453 C 46.00215148925781 69.95128631591797 45.83135986328125 70 45.64923095703125 70 C 45.64923095703125 70 44.64923095703125 70 44.64923095703125 70 C 44.46710205078125 70 44.29631042480469 69.95128631591797 44.14923095703125 69.86621856689453 C 44.00215148925781 69.95128631591797 43.83135986328125 70 43.64923477172852 70 C 43.64923477172852 70 42.64923477172852 70 42.64923477172852 70 C 42.46710205078125 70 42.29631042480469 69.95128631591797 42.14923095703125 69.86621856689453 C 42.00215148925781 69.95128631591797 41.83135986328125 70 41.64923477172852 70 C 41.64923477172852 70 40.64923477172852 70 40.64923477172852 70 C 40.46710205078125 70 40.29631042480469 69.95128631591797 40.14923095703125 69.86621856689453 C 40.00215148925781 69.95128631591797 39.83135986328125 70 39.64923477172852 70 C 39.64923477172852 70 38.64923477172852 70 38.64923477172852 70 C 38.46710205078125 70 38.29631042480469 69.95128631591797 38.14923095703125 69.86621856689453 C 38.00215148925781 69.95128631591797 37.83135986328125 70 37.64923477172852 70 C 37.64923477172852 70 36.64923477172852 70 36.64923477172852 70 C 36.46710205078125 70 36.29631042480469 69.95128631591797 36.14923095703125 69.86621856689453 C 36.00215148925781 69.95128631591797 35.83135986328125 70 35.64923477172852 70 C 35.64923477172852 70 34.64923477172852 70 34.64923477172852 70 C 34.46710205078125 70 34.29631042480469 69.95128631591797 34.14923095703125 69.86621856689453 C 34.00215148925781 69.95128631591797 33.83135986328125 70 33.64923477172852 70 C 33.64923477172852 70 32.64923477172852 70 32.64923477172852 70 C 32.46710205078125 70 32.29631042480469 69.95128631591797 32.14923095703125 69.86621856689453 C 32.00215148925781 69.95128631591797 31.83135986328125 70 31.64923477172852 70 C 31.64923477172852 70 30.64923477172852 70 30.64923477172852 70 C 30.46710205078125 70 30.29631042480469 69.95128631591797 30.14923095703125 69.86621856689453 C 30.00215148925781 69.95128631591797 29.83135986328125 70 29.64923477172852 70 C 29.64923477172852 70 28.64923477172852 70 28.64923477172852 70 C 28.46710205078125 70 28.29631042480469 69.95128631591797 28.14923095703125 69.86621856689453 C 28.00215148925781 69.95128631591797 27.83135986328125 70 27.64923477172852 70 C 27.64923477172852 70 26.64923477172852 70 26.64923477172852 70 C 26.46710205078125 70 26.29631042480469 69.95128631591797 26.14923095703125 69.86621856689453 C 26.00215148925781 69.95128631591797 25.83135986328125 70 25.64923477172852 70 C 25.64923477172852 70 24.64923477172852 70 24.64923477172852 70 C 24.46710205078125 70 24.29631042480469 69.95128631591797 24.14923095703125 69.86621856689453 C 24.00215148925781 69.95128631591797 23.83135986328125 70 23.64923477172852 70 C 23.64923477172852 70 22.64923477172852 70 22.64923477172852 70 C 22.46710205078125 70 22.29631042480469 69.95128631591797 22.14923095703125 69.86621856689453 C 22.00215148925781 69.95128631591797 21.83135986328125 70 21.64923477172852 70 C 21.64923477172852 70 20.64923477172852 70 20.64923477172852 70 C 20.46710205078125 70 20.29631042480469 69.95128631591797 20.14923095703125 69.86621856689453 C 20.00215148925781 69.95128631591797 19.83135986328125 70 19.64923477172852 70 C 19.64923477172852 70 18.64923477172852 70 18.64923477172852 70 C 18.46710205078125 70 18.29631042480469 69.95128631591797 18.14923095703125 69.86621856689453 C 18.00215148925781 69.95128631591797 17.83135986328125 70 17.64923477172852 70 C 17.64923477172852 70 16.64923477172852 70 16.64923477172852 70 C 16.46710205078125 70 16.29631042480469 69.95128631591797 16.14923095703125 69.86621856689453 C 16.00215148925781 69.95128631591797 15.83135986328125 70 15.64923477172852 70 C 15.64923477172852 70 14.64923477172852 70 14.64923477172852 70 C 14.46710205078125 70 14.29631042480469 69.95128631591797 14.14923095703125 69.86621856689453 C 14.00215148925781 69.95128631591797 13.83135986328125 70 13.64923477172852 70 C 13.64923477172852 70 12.64923477172852 70 12.64923477172852 70 C 12.46710205078125 70 12.29631042480469 69.95128631591797 12.14923095703125 69.86621856689453 C 12.00215148925781 69.95128631591797 11.83135986328125 70 11.64923095703125 70 C 11.64923095703125 70 10.64923095703125 70 10.64923095703125 70 C 10.46710205078125 70 10.29631042480469 69.95128631591797 10.14923095703125 69.86621856689453 C 10.00215148925781 69.95128631591797 9.83135986328125 70 9.64923095703125 70 C 9.64923095703125 70 8.64923095703125 70 8.64923095703125 70 C 8.46710205078125 70 8.296310424804688 69.95128631591797 8.14923095703125 69.86621856689453 C 8.002151489257813 69.95128631591797 7.83135986328125 70 7.64923095703125 70 C 7.64923095703125 70 6.64923095703125 70 6.64923095703125 70 C 6.46710205078125 70 6.296310424804688 69.95128631591797 6.14923095703125 69.86621856689453 C 6.002151489257813 69.95128631591797 5.83135986328125 70 5.64923095703125 70 C 5.64923095703125 70 4.64923095703125 70 4.64923095703125 70 C 4.46710205078125 70 4.296310424804688 69.95128631591797 4.14923095703125 69.86621856689453 C 4.002151489257813 69.95128631591797 3.83135986328125 70 3.64923095703125 70 C 3.64923095703125 70 2.64923095703125 70 2.64923095703125 70 C 2.529434204101563 70 2.41455078125 69.97893524169922 2.308097839355469 69.94029998779297 L 2.275688171386719 70 L 0.06027984619140625 70 C 0.06964111328125 69.94532775878906 0.0836639404296875 69.89098358154297 0.1025314331054688 69.83746337890625 C 0.0990142822265625 69.83516693115234 0.0955047607421875 69.83283996582031 0.09201812744140625 69.83049011230469 L 1.085716247558594 68 L 1.088752746582031 68 C 1.098800659179688 67.97777557373047 1.109710693359375 67.95579528808594 1.121536254882813 67.93402099609375 C 1.121536254882813 67.93402099609375 1.287498474121094 67.62828826904297 1.423660278320313 67.37746429443359 L 1.423759460449219 67.37728881835938 C 1.424148559570313 67.37656402587891 1.424560546875 67.37580108642578 1.424957275390625 67.37507629394531 L 1.427864074707031 67.36972045898438 C 1.428085327148438 67.36930847167969 1.428314208984375 67.368896484375 1.428535461425781 67.36848449707031 L 1.599220275878906 67.05406188964844 C 1.686103820800781 66.89447021484375 1.810096740722656 66.76802825927734 1.954742431640625 66.67955017089844 C 1.950172424316406 66.51068115234375 1.988357543945313 66.33840179443359 2.074203491210938 66.17910766601563 L 2.462120056152344 65.46452331542969 C 2.515663146972656 65.36587524414063 2.552810668945313 65.29745483398438 2.552810668945313 65.29745483398438 C 2.639717102050781 65.13735961914063 2.763961791992188 65.01051330566406 2.908927917480469 64.92184448242188 C 2.904350280761719 64.75249481201172 2.942794799804688 64.57966613769531 3.029144287109375 64.41999816894531 L 3.507347106933594 63.53909301757813 C 3.59423828125 63.37929153442383 3.718330383300781 63.25270080566406 3.863113403320313 63.16413879394531 C 3.8585205078125 62.99429321289063 3.897193908691406 62.82096481323242 3.984085083007813 62.6609001159668 C 3.984085083007813 62.6609001159668 4.461174011230469 61.78204345703125 4.461174011230469 61.78204345703125 C 4.548088073730469 61.6219482421875 4.672325134277344 61.4951057434082 4.817298889160156 61.40642929077148 C 4.812713623046875 61.23696136474609 4.8511962890625 61.06404113769531 4.937675476074219 60.90427398681641 L 5.416877746582031 60.02154922485352 C 5.503715515136719 59.86275100708008 5.627342224121094 59.73688507080078 5.771476745605469 59.64871978759766 C 5.766883850097656 59.47887420654297 5.805557250976563 59.3055534362793 5.8924560546875 59.14548873901367 C 5.8924560546875 59.14548873901367 6.369544982910156 58.26663208007813 6.369544982910156 58.26663208007813 C 6.456451416015625 58.10653686523438 6.580696105957031 57.97969436645508 6.725662231445313 57.89101791381836 C 6.721076965332031 57.72145462036133 6.759628295898438 57.54839706420898 6.846214294433594 57.38855361938477 L 7.325157165527344 56.50628662109375 C 7.4119873046875 56.34747695922852 7.535720825195313 56.22150421142578 7.679847717285156 56.13331985473633 C 7.675254821777344 55.96347427368164 7.71392822265625 55.79013061523438 7.800819396972656 55.63006591796875 C 7.800819396972656 55.63006591796875 8.277908325195313 54.751220703125 8.277908325195313 54.751220703125 C 8.364822387695313 54.59112930297852 8.489059448242188 54.46428298950195 8.634033203125 54.37560653686523 C 8.629440307617188 54.20591735839844 8.66802978515625 54.03277206420898 8.754745483398438 53.87283325195313 L 9.233444213867188 52.99102401733398 C 9.320289611816406 52.83209991455078 9.444000244140625 52.70611572265625 9.588218688964844 52.61789703369141 C 9.583625793457031 52.44805145263672 9.622299194335938 52.27471923828125 9.709190368652344 52.11465454101563 C 9.709190368652344 52.11465454101563 9.818428039550781 51.91341781616211 9.932365417480469 51.70353317260742 L 9.932365417480469 51.70353317260742 C 9.93280029296875 51.70272827148438 9.933235168457031 51.70194244384766 9.933670043945313 51.70113754272461 L 9.934288024902344 51.69999694824219 C 9.934356689453125 51.69986343383789 9.934425354003906 51.69973754882813 9.934501647949219 51.69960784912109 L 10.18711853027344 51.2342529296875 C 10.27398681640625 51.07487106323242 10.39788055419922 50.94858169555664 10.54239654541016 50.86018753051758 C 10.53782653808594 50.69137573242188 10.57600402832031 50.51912307739258 10.66178131103516 50.35987854003906 L 10.89511871337891 49.93004608154297 C 11.01661682128906 49.70623397827148 11.14046478271484 49.47809982299805 11.14046478271484 49.47809982299805 C 11.22737121582031 49.31800842285156 11.35161590576172 49.191162109375 11.49658203125 49.10248565673828 C 11.49198913574219 48.93264007568359 11.53066253662109 48.75930786132813 11.6175537109375 48.5992431640625 C 11.6175537109375 48.5992431640625 11.78352355957031 48.29351043701172 11.91968536376953 48.04268646240234 L 11.91977691650391 48.04251098632813 C 11.92017364501953 48.04178619384766 11.92058563232422 48.04102325439453 11.92098236083984 48.04029846191406 L 11.92388916015625 48.03494262695313 C 11.92411041259766 48.03453063964844 11.92433166503906 48.03411865234375 11.924560546875 48.03370666503906 L 12.09525299072266 47.71926879882813 C 12.18211364746094 47.55974960327148 12.30617904663086 47.43325042724609 12.45076370239258 47.34478759765625 C 12.44619369506836 47.1759147644043 12.48437881469727 47.00362396240234 12.57022094726563 46.84432983398438 L 12.95813751220703 46.12974548339844 C 13.01168823242188 46.03110122680664 13.04883193969727 45.96267700195313 13.04883193969727 45.96267700195313 C 13.1357421875 45.80258178710938 13.25997924804688 45.67574310302734 13.40494918823242 45.58706665039063 C 13.40035629272461 45.41722106933594 13.43902969360352 45.243896484375 13.52592086791992 45.08383178710938 C 13.52592086791992 45.08383178710938 13.75663375854492 44.65883636474609 13.89718246459961 44.39992523193359 L 13.89839172363281 44.39769744873047 C 13.89868927001953 44.39715576171875 13.89897918701172 44.39661407470703 13.89927291870117 44.39607238769531 L 14.00337219238281 44.20431518554688 C 14.09026336669922 44.04451370239258 14.21434783935547 43.91792297363281 14.359130859375 43.82936096191406 C 14.35455703735352 43.66039657592773 14.39281463623047 43.48797607421875 14.47875595092773 43.32860565185547 L 14.82096099853516 42.69822692871094 C 14.82102966308594 42.69810485839844 14.82110595703125 42.69795989990234 14.82117462158203 42.69783782958984 L 14.82286834716797 42.69471740722656 C 14.82351684570313 42.69351959228516 14.82418441772461 42.69229507446289 14.8248291015625 42.69110488891602 L 14.82501602172852 42.69075775146484 C 14.89990234375 42.55281066894531 14.95719909667969 42.447265625 14.95719909667969 42.447265625 C 15.04410934448242 42.28717041015625 15.16835021972656 42.16032791137695 15.31332015991211 42.0716552734375 C 15.30873489379883 41.90218353271484 15.34721755981445 41.72926330566406 15.43370056152344 41.56949615478516 L 15.9114990234375 40.68934631347656 C 15.9984016418457 40.52933502197266 16.12258529663086 40.40259552001953 16.26750183105469 40.31394958496094 C 16.26290512084961 40.14410400390625 16.30158233642578 39.97077560424805 16.38847732543945 39.81071090698242 C 16.38847732543945 39.81071090698242 16.86556625366211 38.93185424804688 16.86556625366211 38.93185424804688 C 16.95247268676758 38.77175903320313 17.07671737670898 38.64491653442383 17.22168731689453 38.55624008178711 C 17.21709823608398 38.38667678833008 17.25564956665039 38.21361541748047 17.34223556518555 38.05377578735352 L 17.82118606567383 37.17150115966797 C 17.90802383422852 37.01266098022461 18.03170394897461 36.88671112060547 18.17586898803711 36.79853057861328 C 18.17127227783203 36.62868118286133 18.2099494934082 36.45536422729492 18.29684448242188 36.2952995300293 C 18.29684448242188 36.2952995300293 18.77393341064453 35.41644287109375 18.77393341064453 35.41644287109375 C 18.86083984375 35.25635147094727 18.98508453369141 35.1295051574707 19.13005447387695 35.04082870483398 C 19.12546157836914 34.87113952636719 19.1640510559082 34.69799041748047 19.25077056884766 34.53805160522461 L 19.72945785522461 33.65626525878906 C 19.81628799438477 33.49737167358398 19.9400520324707 33.3713493347168 20.08423614501953 33.28313446044922 C 20.07963943481445 33.11328506469727 20.11831665039063 32.93994140625 20.2052116394043 32.77987670898438 C 20.2052116394043 32.77987670898438 20.68230056762695 31.90103149414063 20.68230056762695 31.90103149414063 C 20.76920700073242 31.74094009399414 20.89345169067383 31.61409378051758 21.03842163085938 31.52541732788086 C 21.0338249206543 31.35563278198242 21.07248306274414 31.18234634399414 21.15930557250977 31.02233123779297 L 21.63774108886719 30.14099884033203 C 21.72459411621094 29.98199462890625 21.84833145141602 29.85595703125 21.99260711669922 29.76770782470703 C 21.98801040649414 29.59785842895508 22.02668762207031 29.42453002929688 22.11357879638672 29.26446533203125 C 22.11357879638672 29.26446533203125 22.28171539306641 28.95473480224609 22.41835784912109 28.70302200317383 L 22.41854476928711 28.70268249511719 C 22.42119979858398 28.69779205322266 22.42384338378906 28.69292068481445 22.42647171020508 28.68807983398438 L 22.42652893066406 28.6879768371582 C 22.42687606811523 28.68733596801758 22.4272346496582 28.68667602539063 22.42758178710938 28.68603515625 L 22.42805862426758 28.68515396118164 C 22.42824172973633 28.68482208251953 22.42841720581055 28.68449783325195 22.42859649658203 28.68416595458984 L 22.43058013916016 28.68051147460938 C 22.43085479736328 28.68000030517578 22.43111038208008 28.67953109741211 22.43138885498047 28.67901992797852 L 22.59125518798828 28.3845329284668 C 22.67813491821289 28.22494125366211 22.80213928222656 28.09847640991211 22.94678497314453 28.0099983215332 C 22.94221496582031 27.84112548828125 22.98041534423828 27.6688232421875 23.06625747680664 27.50952529907227 L 23.27322769165039 27.12826156616211 C 23.40243530273438 26.89025497436523 23.54485702514648 26.62791061401367 23.54485702514648 26.62791061401367 C 23.63176345825195 26.46781539916992 23.75600433349609 26.34097290039063 23.90097427368164 26.25230026245117 C 23.89637756347656 26.08245086669922 23.93505477905273 25.90911865234375 24.02194595336914 25.74905395507813 C 24.02194595336914 25.74905395507813 24.2577018737793 25.31475830078125 24.39776229858398 25.05675506591797 L 24.39801025390625 25.05629348754883 C 24.39950561523438 25.05354309082031 24.40098190307617 25.05081939697266 24.4024543762207 25.0481071472168 L 24.40252685546875 25.0479736328125 C 24.40327072143555 25.04660797119141 24.40402221679688 25.04522323608398 24.40475845336914 25.04386901855469 L 24.40480041503906 25.04379272460938 C 24.40540313720703 25.04267501831055 24.40601348876953 25.04155731201172 24.40661239624023 25.04044723510742 L 24.40787124633789 25.03813171386719 C 24.40827941894531 25.03737640380859 24.40868377685547 25.03663635253906 24.40909194946289 25.03588104248047 L 24.40946578979492 25.03519439697266 C 24.41002655029297 25.03416442871094 24.41057968139648 25.03314590454102 24.41113662719727 25.03211975097656 L 24.41199493408203 25.03053665161133 C 24.4120979309082 25.03034591674805 24.41219711303711 25.0301628112793 24.41230010986328 25.02997207641602 L 24.41291427612305 25.02884674072266 C 24.41305160522461 25.02859115600586 24.41320037841797 25.02831649780273 24.41333770751953 25.0280647277832 L 24.41401672363281 25.02680969238281 C 24.41424560546875 25.02638626098633 24.41447067260742 25.02597045898438 24.41469955444336 25.02555084228516 L 24.41522979736328 25.02457809448242 C 24.41529846191406 25.02445220947266 24.41534805297852 25.02436065673828 24.4154167175293 25.02423477172852 L 24.49938583374023 24.86955261230469 C 24.58627700805664 24.70975112915039 24.71037292480469 24.58314514160156 24.85515213012695 24.49458694458008 C 24.85058212280273 24.32561874389648 24.88884735107422 24.15317916870117 24.97478866577148 23.99380874633789 L 25.30921936035156 23.37775039672852 C 25.30938339233398 23.3774528503418 25.30954360961914 23.37715530395508 25.30970764160156 23.37685394287109 L 25.31032943725586 23.37571334838867 C 25.31101608276367 23.37444686889648 25.31171035766602 23.3731689453125 25.31239318847656 23.37190628051758 L 25.313232421875 23.370361328125 C 25.39191055297852 23.22542953491211 25.45322036743164 23.11248779296875 25.45322036743164 23.11248779296875 C 25.54013061523438 22.95239639282227 25.66436767578125 22.82555389404297 25.8093376159668 22.73687744140625 C 25.80474472045898 22.56703186035156 25.84341812133789 22.39370727539063 25.9303092956543 22.233642578125 C 25.9303092956543 22.233642578125 26.28255844116211 21.58476257324219 26.3817138671875 21.40210723876953 L 26.38178634643555 21.40197372436523 C 26.38261032104492 21.40045928955078 26.38341903686523 21.39896392822266 26.38420867919922 21.39751434326172 L 26.384521484375 21.39693069458008 C 26.38484573364258 21.39633941650391 26.38515853881836 21.39575958251953 26.38547515869141 21.39517593383789 L 26.38775253295898 21.39098358154297 C 26.38779067993164 21.39091491699219 26.38783264160156 21.39083099365234 26.38787078857422 21.39076232910156 L 26.38831329345703 21.38994979858398 C 26.38841247558594 21.38976669311523 26.38850784301758 21.38959121704102 26.38860321044922 21.38941192626953 L 26.38993453979492 21.38696670532227 C 26.39009857177734 21.38665771484375 26.39025497436523 21.38636779785156 26.39041900634766 21.38606643676758 L 26.39041900634766 21.38606643676758 C 26.39072418212891 21.38550567626953 26.39102172851563 21.38496398925781 26.39131546020508 21.38441467285156 L 26.39174652099609 21.38362121582031 C 26.3918342590332 21.38346481323242 26.39192199707031 21.38330078125 26.39200592041016 21.38314437866211 L 26.39209747314453 21.38297653198242 C 26.39258193969727 21.38208389282227 26.39306640625 21.38119125366211 26.39353179931641 21.38033676147461 L 26.39377212524414 21.3798942565918 C 26.39386749267578 21.37971878051758 26.39396667480469 21.37953567504883 26.39406204223633 21.37936401367188 L 26.39422988891602 21.37905120849609 C 26.39430999755859 21.37890625 26.39439010620117 21.37875747680664 26.39446640014648 21.37861633300781 L 26.39630508422852 21.37522506713867 C 26.39630889892578 21.37521743774414 26.39631271362305 21.37521362304688 26.39631652832031 21.37520599365234 L 26.39669036865234 21.37451934814453 C 26.3967399597168 21.37442398071289 26.39679718017578 21.37432098388672 26.3968505859375 21.37422561645508 L 26.39716720581055 21.37363815307617 C 26.39719009399414 21.37359619140625 26.39721298217773 21.37355422973633 26.39723587036133 21.37351226806641 L 26.3975830078125 21.37287521362305 C 26.39778518676758 21.37249755859375 26.39799118041992 21.37211990356445 26.39818954467773 21.37175369262695 L 26.39931106567383 21.36969375610352 C 26.39932250976563 21.36967086791992 26.39932632446289 21.36966323852539 26.39933776855469 21.3696403503418 L 26.40007400512695 21.3682861328125 C 26.40008926391602 21.36825942993164 26.40010833740234 21.36822128295898 26.40012359619141 21.36819076538086 L 26.40751647949219 21.35457229614258 C 26.49441909790039 21.19456481933594 26.61860275268555 21.06781768798828 26.76351928710938 20.97917556762695 C 26.75894546508789 20.81008148193359 26.79724502563477 20.63755798339844 26.88332366943359 20.47808837890625 L 27.17348480224609 19.94358444213867 C 27.27376174926758 19.75886154174805 27.36158752441406 19.59707641601563 27.36158752441406 19.59707641601563 C 27.44847869873047 19.43701171875 27.57276916503906 19.31015396118164 27.71770477294922 19.22147750854492 C 27.71311950683594 19.05191421508789 27.75167465209961 18.87883377075195 27.83826065063477 18.71899032592773 L 28.18709182739258 18.07640838623047 C 28.18723678588867 18.07614517211914 28.18739318847656 18.07585525512695 28.18753433227539 18.07559204101563 L 28.18829345703125 18.07419204711914 C 28.18892288208008 18.07304000854492 28.18954086303711 18.07189559936523 28.19016647338867 18.07074737548828 L 28.1906852722168 18.06978988647461 C 28.19210052490234 18.06718444824219 28.19351196289063 18.06457901000977 28.19491577148438 18.0620002746582 L 28.19581985473633 18.06032943725586 C 28.19876861572266 18.05489730834961 28.20171356201172 18.04947280883789 28.20459747314453 18.04416275024414 L 28.2057991027832 18.04195022583008 C 28.20711135864258 18.03953170776367 28.20839309692383 18.03716659545898 28.20969009399414 18.0347785949707 L 28.21014404296875 18.0339469909668 C 28.21150970458984 18.03142547607422 28.21286392211914 18.02893447875977 28.21421432495117 18.02644729614258 L 28.21504211425781 18.02492141723633 C 28.27394485473633 17.91641998291016 28.31576538085938 17.83937835693359 28.31576538085938 17.83937835693359 C 28.40267562866211 17.67928314208984 28.52691650390625 17.55244064331055 28.6718864440918 17.46376419067383 C 28.66730880737305 17.29457473754883 28.7056770324707 17.12191390991211 28.79185485839844 16.96236801147461 L 29.04563522338867 16.49488067626953 C 29.04643630981445 16.493408203125 29.0472412109375 16.49192428588867 29.04803848266602 16.49045181274414 L 29.04823684692383 16.49008560180664 C 29.16164016723633 16.28119277954102 29.26995468139648 16.0816650390625 29.26995468139648 16.0816650390625 C 29.35686492919922 15.92157363891602 29.48110580444336 15.79472732543945 29.62607574462891 15.70605087280273 C 29.62148284912109 15.53636169433594 29.66007232666016 15.36321258544922 29.74679565429688 15.20327377319336 L 30.22548294067383 14.32147979736328 C 30.31232452392578 14.16255569458008 30.43603897094727 14.03655624389648 30.58025741577148 13.94834136962891 C 30.57566070556641 13.77849578857422 30.61433792114258 13.60517501831055 30.70123291015625 13.44511032104492 C 30.70123291015625 13.44511032104492 31.17832183837891 12.56625366210938 31.17832183837891 12.56625366210938 C 31.26522827148438 12.40616226196289 31.38947296142578 12.27931594848633 31.53444290161133 12.19063949584961 C 31.52984619140625 12.02085494995117 31.56850433349609 11.84756851196289 31.65532684326172 11.68755340576172 L 32.13376235961914 10.80622482299805 C 32.22060012817383 10.64724731445313 32.34438705444336 10.52119064331055 32.48862457275391 10.43294525146484 C 32.48402786254883 10.26309585571289 32.522705078125 10.08975219726563 32.60960006713867 9.9296875 C 32.60960006713867 9.9296875 32.77774047851563 9.619956970214844 32.91437911987305 9.368244171142578 L 32.91456604003906 9.367904663085938 C 32.91722106933594 9.363014221191406 32.91986465454102 9.358142852783203 32.92249298095703 9.353302001953125 L 32.92255020141602 9.353199005126953 C 32.92289733886719 9.352558135986328 32.92325592041016 9.351898193359375 32.92360305786133 9.35125732421875 L 32.9240837097168 9.350376129150391 C 32.92426300048828 9.350044250488281 32.9244384765625 9.349720001220703 32.92461776733398 9.349388122558594 L 32.92660140991211 9.345733642578125 C 32.9268798828125 9.345222473144531 32.9271354675293 9.344753265380859 32.92741012573242 9.344242095947266 L 33.08727264404297 9.049762725830078 C 33.17415237426758 8.890174865722656 33.29816055297852 8.763702392578125 33.44281005859375 8.675228118896484 C 33.43821334838867 8.505378723144531 33.47688674926758 8.332054138183594 33.56377792358398 8.171989440917969 C 33.56377792358398 8.171989440917969 33.58051300048828 8.141159057617188 33.60770797729492 8.091064453125 L 33.60789108276367 8.090724945068359 C 33.61013031005859 8.086605072021484 33.61242294311523 8.082378387451172 33.61479949951172 8.0780029296875 L 33.61486434936523 8.077880859375 C 33.61601638793945 8.075759887695313 33.6171760559082 8.073623657226563 33.61835861206055 8.071445465087891 L 33.61863327026367 8.070938110351563 C 33.61916732788086 8.069953918457031 33.61968231201172 8.069007873535156 33.62022018432617 8.068012237548828 L 33.62057876586914 8.067352294921875 C 33.62078857421875 8.066970825195313 33.62099075317383 8.066596984863281 33.62119674682617 8.066211700439453 L 33.62465286254883 8.059852600097656 C 33.62467193603516 8.059814453125 33.62471008300781 8.059741973876953 33.62473297119141 8.059703826904297 L 33.62759399414063 8.054431915283203 C 33.62761306762695 8.054393768310547 33.62764358520508 8.054344177246094 33.62766265869141 8.054306030273438 L 34.04204940795898 7.290962219238281 C 34.12890625 7.131870269775391 34.25266647338867 7.005802154541016 34.39699554443359 6.917518615722656 C 34.39239883422852 6.747669219970703 34.43107604980469 6.5743408203125 34.51796722412109 6.414276123046875 C 34.51796722412109 6.414276123046875 34.75372695922852 5.97998046875 34.89378356933594 5.721977233886719 L 34.89403533935547 5.721519470214844 C 34.89552688598633 5.718765258789063 34.89700698852539 5.716041564941406 34.89847946166992 5.713333129882813 L 34.8985481262207 5.71319580078125 C 34.8992919921875 5.711830139160156 34.90004348754883 5.71044921875 34.90077972412109 5.709091186523438 L 34.90082168579102 5.709014892578125 C 34.90142822265625 5.707901000976563 34.90203475952148 5.706779479980469 34.90263748168945 5.705673217773438 L 34.90389251708984 5.703353881835938 C 34.90430450439453 5.702598571777344 34.90470504760742 5.701858520507813 34.90511322021484 5.701103210449219 L 34.90548706054688 5.700416564941406 C 34.90604782104492 5.699386596679688 34.90660095214844 5.6983642578125 34.90715789794922 5.697341918945313 L 34.90801620483398 5.695762634277344 C 34.90811920166016 5.695564270019531 34.90821838378906 5.695388793945313 34.90832138061523 5.695198059082031 L 34.908935546875 5.694068908691406 C 34.90907287597656 5.693817138671875 34.90922164916992 5.69354248046875 34.90935897827148 5.693283081054688 L 34.91003799438477 5.692031860351563 C 34.9102668762207 5.691612243652344 34.91049575805664 5.691192626953125 34.91072463989258 5.690773010253906 L 34.91125106811523 5.689804077148438 C 34.91131973266602 5.689674377441406 34.91136932373047 5.689582824707031 34.91143798828125 5.689460754394531 L 34.99540710449219 5.534774780273438 C 35.08229827880859 5.374977111816406 35.20639419555664 5.248367309570313 35.35117721557617 5.159812927246094 C 35.34660339355469 4.9908447265625 35.38486862182617 4.818397521972656 35.4708137512207 4.659027099609375 L 35.95033645629883 3.77569580078125 C 36.03719329833984 3.616569519042969 36.16100692749023 3.490409851074219 36.30536270141602 3.402107238769531 C 36.30076599121094 3.232261657714844 36.33944320678711 3.058929443359375 36.42633438110352 2.89886474609375 C 36.42633438110352 2.89886474609375 36.77857971191406 2.249984741210938 36.87773513793945 2.067329406738281 L 36.8778076171875 2.067192077636719 C 36.87863159179688 2.065681457519531 36.87944030761719 2.064186096191406 36.88022994995117 2.062736511230469 L 36.88054656982422 2.062156677246094 C 36.88086700439453 2.061561584472656 36.88118362426758 2.060981750488281 36.88149642944336 2.060401916503906 L 36.88377380371094 2.056205749511719 C 36.8838005065918 2.056159973144531 36.88383102416992 2.056106567382813 36.88385391235352 2.056060791015625 C 36.88385391235352 2.056060791015625 36.88385391235352 2.056060791015625 36.88385391235352 2.056060791015625 L 38 0 Z M 38.9838752746582 5.724052429199219 C 38.83893966674805 5.635383605957031 38.71464538574219 5.508522033691406 38.62775421142578 5.348457336425781 L 38.15065383911133 4.469596862792969 C 38.08026504516602 4.339927673339844 38.0415153503418 4.201553344726563 38.03178024291992 4.063385009765625 C 37.970703125 4.128021240234375 37.90203857421875 4.183319091796875 37.82791519165039 4.228660583496094 C 37.83251190185547 4.398506164550781 37.7938346862793 4.57183837890625 37.70694351196289 4.731903076171875 L 37.22985458374023 5.610755920410156 C 37.14294815063477 5.770851135253906 37.01870727539063 5.897697448730469 36.87373733520508 5.986373901367188 C 36.87833404541016 6.156219482421875 36.83965682983398 6.329547882080078 36.75276565551758 6.489612579345703 L 36.27566528320313 7.368465423583984 C 36.18875885009766 7.528560638427734 36.06451797485352 7.655406951904297 35.91954803466797 7.74407958984375 C 35.92414474487305 7.913928985595703 35.88546752929688 8.087245941162109 35.79857635498047 8.247310638427734 L 35.32148742675781 9.126167297363281 C 35.23458099365234 9.286262512207031 35.11033630371094 9.413108825683594 34.96536636352539 9.501781463623047 C 34.9699592590332 9.671630859375 34.9312858581543 9.844959259033203 34.84438705444336 10.00502395629883 L 34.3672981262207 10.88387680053711 C 34.2804069519043 11.04394149780273 34.1561164855957 11.17080688476563 34.01118087768555 11.25947952270508 C 34.01577758789063 11.42932510375977 33.97710418701172 11.60266876220703 33.89021301269531 11.76273345947266 L 33.41312408447266 12.64157867431641 C 33.32621383666992 12.80167007446289 33.20196914672852 12.92851638793945 33.05699920654297 13.01719284057617 C 33.06159210205078 13.18704223632813 33.02291870117188 13.36037063598633 32.9360237121582 13.52043151855469 L 32.45893478393555 14.39928817749023 C 32.37202453613281 14.55938339233398 32.24778366088867 14.68622589111328 32.10281372070313 14.77490234375 C 32.1074104309082 14.94475173950195 32.0687370300293 15.11808013916016 31.98184585571289 15.27814483642578 L 31.50475692749023 16.15700149536133 C 31.41784286499023 16.31709289550781 31.29360198974609 16.44393920898438 31.14863204956055 16.53261184692383 C 31.15322875976563 16.70245742797852 31.11455154418945 16.87578201293945 31.02765655517578 17.03584289550781 L 30.55056762695313 17.91469955444336 C 30.46365737915039 18.07479476928711 30.33941650390625 18.20163726806641 30.1944465637207 18.29031372070313 C 30.19904327392578 18.46016311645508 30.16036987304688 18.63349151611328 30.07347869873047 18.79355621337891 L 29.59638977050781 19.67241287231445 C 29.50949478149414 19.83247375488281 29.38519668579102 19.9593391418457 29.24026107788086 20.04801177978516 C 29.24485397338867 20.21786117553711 29.20618057250977 20.39120101928711 29.11928939819336 20.55126571655273 L 28.6422004699707 21.43012237548828 C 28.55529403686523 21.59021759033203 28.43104934692383 21.71706008911133 28.28607940673828 21.80573654174805 C 28.29067611694336 21.97558212280273 28.25200271606445 22.14890289306641 28.16511154174805 22.30896759033203 L 27.68801116943359 23.18782043457031 C 27.60110473632813 23.34791564941406 27.47686386108398 23.47475814819336 27.33189392089844 23.56343460083008 C 27.33649063110352 23.73328399658203 27.29781341552734 23.90661239624023 27.21092224121094 24.06667709350586 L 26.73383331298828 24.94553375244141 C 26.64692687988281 25.10562896728516 26.52268218994141 25.23247146606445 26.37771224975586 25.32114791870117 C 26.38230895996094 25.49099349975586 26.34363555908203 25.66432571411133 26.25674438476563 25.82439041137695 L 25.77964401245117 26.70323181152344 C 25.6927375793457 26.86332702636719 25.56849670410156 26.99016952514648 25.42352676391602 27.0788459777832 C 25.42812347412109 27.24869537353516 25.38944625854492 27.42202377319336 25.30255508422852 27.58208847045898 L 24.82546615600586 28.46094512939453 C 24.73855972290039 28.62104034423828 24.61431503295898 28.74788284301758 24.46934509277344 28.8365592956543 C 24.47394180297852 29.00640487670898 24.43526840209961 29.17973709106445 24.3483772277832 29.33980178833008 L 23.87127685546875 30.21865463256836 C 23.78437042236328 30.37874984741211 23.66012954711914 30.50559234619141 23.51515960693359 30.59426879882813 C 23.51975631713867 30.76411437988281 23.4810791015625 30.93743515014648 23.39418792724609 31.09749984741211 L 22.91709899902344 31.97635650634766 C 22.83019256591797 32.13644790649414 22.70595169067383 32.2632942199707 22.56098175048828 32.35197067260742 C 22.56557846069336 32.52181625366211 22.52690124511719 32.69514846801758 22.44001007080078 32.85520935058594 L 21.96290969848633 33.73406600952148 C 21.87601852416992 33.89413070678711 21.75172805786133 34.02099609375 21.60679244995117 34.10966873168945 C 21.61138916015625 34.27951431274414 21.57271194458008 34.45285797119141 21.48582077026367 34.61292266845703 L 21.00873184204102 35.49176788330078 C 20.92182540893555 35.65185928344727 20.79758071899414 35.77870559692383 20.65261077880859 35.86738204956055 C 20.65720367431641 36.0372314453125 20.6185302734375 36.21055603027344 20.53163146972656 36.37062072753906 L 20.05454254150391 37.24947738647461 C 19.96763610839844 37.40957260131836 19.8433952331543 37.53641510009766 19.69842529296875 37.62509155273438 C 19.70302200317383 37.79494094848633 19.66434860229492 37.96826934814453 19.57745742797852 38.12833404541016 L 19.10036849975586 39.00718688964844 C 19.01345825195313 39.16728210449219 18.88921356201172 39.29412841796875 18.74424362182617 39.38280487060547 C 18.74883651733398 39.55265045166016 18.71016311645508 39.72598266601563 18.62326812744141 39.88604354858398 L 18.14617919921875 40.76488876342773 C 18.05926895141602 40.92498016357422 17.93502807617188 41.05182647705078 17.79005813598633 41.1405029296875 C 17.79465484619141 41.31034851074219 17.7559814453125 41.48368072509766 17.66909027099609 41.64374542236328 L 17.19200134277344 42.52259826660156 C 17.10510635375977 42.68266296386719 16.98080825805664 42.80952835083008 16.83587265014648 42.89820098876953 C 16.8404655456543 43.06805038452148 16.80179214477539 43.24139022827148 16.71490097045898 43.40145492553711 L 16.23781204223633 44.28031158447266 C 16.15090179443359 44.44040679931641 16.02666091918945 44.5672492980957 15.88169097900391 44.65592193603516 C 15.88628768920898 44.82577133178711 15.84761428833008 44.99909210205078 15.76072311401367 45.15915679931641 L 15.28363418579102 46.03800964355469 C 15.19672393798828 46.19810485839844 15.07247543334961 46.324951171875 14.92750549316406 46.41362762451172 C 14.93209838867188 46.58347320556641 14.89342498779297 46.75680160522461 14.80653381347656 46.91686630249023 L 14.32944488525391 47.79572296142578 C 14.24253845214844 47.95581817626953 14.11829376220703 48.08266067504883 13.97332382202148 48.17133331298828 C 13.97792053222656 48.34118270874023 13.93924713134766 48.51451110839844 13.85235595703125 48.67457580566406 L 13.3752555847168 49.55342102050781 C 13.28834915161133 49.71351623535156 13.16410827636719 49.84035873413086 13.01913833618164 49.92903518676758 C 13.02373504638672 50.09888458251953 12.98505783081055 50.27221298217773 12.89816665649414 50.43227767944336 L 12.42107772827148 51.31113433837891 C 12.33417129516602 51.47122955322266 12.20992660522461 51.59807205200195 12.06495666503906 51.68674850463867 C 12.06955337524414 51.85659790039063 12.03087997436523 52.02992248535156 11.94399261474609 52.18998718261719 L 11.46688842773438 53.06884384155273 C 11.37998199462891 53.22893905639648 11.25574493408203 53.35578155517578 11.11077117919922 53.4444580078125 C 11.11536407470703 53.61430358886719 11.07669067382813 53.78762435913086 10.98979949951172 53.94768905639648 L 10.51271057128906 54.82654571533203 C 10.42580413818359 54.98663711547852 10.30155944824219 55.11348342895508 10.15659332275391 55.2021598815918 C 10.16118621826172 55.37200546264648 10.12251281738281 55.54533386230469 10.03562164306641 55.70539855957031 L 9.558525085449219 56.58425521850586 C 9.471633911132813 56.74431991577148 9.347335815429688 56.87118148803711 9.202400207519531 56.95985412597656 C 9.207000732421875 57.12970352172852 9.168327331542969 57.30304718017578 9.081436157226563 57.46311187744141 L 8.604347229003906 58.34196472167969 C 8.517433166503906 58.50205612182617 8.393196105957031 58.62889862060547 8.248222351074219 58.71757507324219 C 8.252822875976563 58.88742065429688 8.214149475097656 59.06074523925781 8.12725830078125 59.22080993652344 L 7.650154113769531 60.09966659545898 C 7.563247680664063 60.25976181030273 7.439002990722656 60.38660430908203 7.294036865234375 60.47528076171875 C 7.298629760742188 60.64512634277344 7.259956359863281 60.81845855712891 7.173065185546875 60.97852325439453 L 6.695976257324219 61.85737609863281 C 6.60906982421875 62.01747131347656 6.484825134277344 62.14431762695313 6.339851379394531 62.23299407958984 C 6.344451904296875 62.40283966064453 6.305770874023438 62.57616806030273 6.218879699707031 62.73623275756836 L 5.741790771484375 63.61507797241211 C 5.654884338378906 63.77517318725586 5.5306396484375 63.90201568603516 5.385665893554688 63.99069213867188 C 5.390266418457031 64.16053771972656 5.351593017578125 64.33386993408203 5.264701843261719 64.49393463134766 L 4.787612915039063 65.37278747558594 C 4.700698852539063 65.53288269042969 4.576454162597656 65.65972900390625 4.431488037109375 65.74840545654297 C 4.436080932617188 65.91825103759766 4.397407531738281 66.09158325195313 4.310508728027344 66.25164794921875 L 3.833419799804688 67.13050079345703 C 3.746513366699219 67.29059600830078 3.622276306152344 67.41743469238281 3.477302551269531 67.50611114501953 C 3.4818115234375 67.67266082763672 3.444709777832031 67.84254455566406 3.361343383789063 68 L 3.64923095703125 68 C 3.83135986328125 68 4.002151489257813 68.04871368408203 4.14923095703125 68.13378143310547 C 4.296310424804688 68.04871368408203 4.46710205078125 68 4.64923095703125 68 L 5.64923095703125 68 C 5.83135986328125 68 6.002151489257813 68.04871368408203 6.14923095703125 68.13378143310547 C 6.296310424804688 68.04871368408203 6.46710205078125 68 6.64923095703125 68 L 7.64923095703125 68 C 7.83135986328125 68 8.002151489257813 68.04871368408203 8.14923095703125 68.13378143310547 C 8.296310424804688 68.04871368408203 8.46710205078125 68 8.64923095703125 68 L 9.64923095703125 68 C 9.83135986328125 68 10.00215148925781 68.04871368408203 10.14923095703125 68.13378143310547 C 10.29631042480469 68.04871368408203 10.46710205078125 68 10.64923095703125 68 L 11.64923095703125 68 C 11.83135986328125 68 12.00215148925781 68.04871368408203 12.14923095703125 68.13378143310547 C 12.29631042480469 68.04871368408203 12.46710205078125 68 12.64923477172852 68 L 13.64923477172852 68 C 13.83135986328125 68 14.00215148925781 68.04871368408203 14.14923095703125 68.13378143310547 C 14.29631042480469 68.04871368408203 14.46710205078125 68 14.64923477172852 68 L 15.64923477172852 68 C 15.83135986328125 68 16.00215148925781 68.04871368408203 16.14923095703125 68.13378143310547 C 16.29631042480469 68.04871368408203 16.46710205078125 68 16.64923477172852 68 L 17.64923477172852 68 C 17.83135986328125 68 18.00215148925781 68.04871368408203 18.14923095703125 68.13378143310547 C 18.29631042480469 68.04871368408203 18.46710205078125 68 18.64923477172852 68 L 19.64923477172852 68 C 19.83135986328125 68 20.00215148925781 68.04871368408203 20.14923095703125 68.13378143310547 C 20.29631042480469 68.04871368408203 20.46710205078125 68 20.64923477172852 68 L 21.64923477172852 68 C 21.83135986328125 68 22.00215148925781 68.04871368408203 22.14923095703125 68.13378143310547 C 22.29631042480469 68.04871368408203 22.46710205078125 68 22.64923477172852 68 L 23.64923477172852 68 C 23.83135986328125 68 24.00215148925781 68.04871368408203 24.14923095703125 68.13378143310547 C 24.29631042480469 68.04871368408203 24.46710205078125 68 24.64923477172852 68 L 25.64923477172852 68 C 25.83135986328125 68 26.00215148925781 68.04871368408203 26.14923095703125 68.13378143310547 C 26.29631042480469 68.04871368408203 26.46710205078125 68 26.64923477172852 68 L 27.64923477172852 68 C 27.83135986328125 68 28.00215148925781 68.04871368408203 28.14923095703125 68.13378143310547 C 28.29631042480469 68.04871368408203 28.46710205078125 68 28.64923477172852 68 L 29.64923477172852 68 C 29.83135986328125 68 30.00215148925781 68.04871368408203 30.14923095703125 68.13378143310547 C 30.29631042480469 68.04871368408203 30.46710205078125 68 30.64923477172852 68 L 31.64923477172852 68 C 31.83135986328125 68 32.00215148925781 68.04871368408203 32.14923095703125 68.13378143310547 C 32.29631042480469 68.04871368408203 32.46710205078125 68 32.64923477172852 68 L 33.64923477172852 68 C 33.83135986328125 68 34.00215148925781 68.04871368408203 34.14923095703125 68.13378143310547 C 34.29631042480469 68.04871368408203 34.46710205078125 68 34.64923477172852 68 L 35.64923477172852 68 C 35.83135986328125 68 36.00215148925781 68.04871368408203 36.14923095703125 68.13378143310547 C 36.29631042480469 68.04871368408203 36.46710205078125 68 36.64923477172852 68 L 37.64923477172852 68 C 37.83135986328125 68 38.00215148925781 68.04871368408203 38.14923095703125 68.13378143310547 C 38.29631042480469 68.04871368408203 38.46710205078125 68 38.64923477172852 68 L 39.64923477172852 68 C 39.83135986328125 68 40.00215148925781 68.04871368408203 40.14923095703125 68.13378143310547 C 40.29631042480469 68.04871368408203 40.46710205078125 68 40.64923477172852 68 L 41.64923477172852 68 C 41.83135986328125 68 42.00215148925781 68.04871368408203 42.14923095703125 68.13378143310547 C 42.29631042480469 68.04871368408203 42.46710205078125 68 42.64923477172852 68 L 43.64923477172852 68 C 43.83135986328125 68 44.00215148925781 68.04871368408203 44.14923095703125 68.13378143310547 C 44.29631042480469 68.04871368408203 44.46710205078125 68 44.64923095703125 68 L 45.64923095703125 68 C 45.83135986328125 68 46.00215148925781 68.04871368408203 46.14923095703125 68.13378143310547 C 46.29631042480469 68.04871368408203 46.46710205078125 68 46.64923095703125 68 L 47.64923095703125 68 C 47.83135986328125 68 48.00215148925781 68.04871368408203 48.14923095703125 68.13378143310547 C 48.29631042480469 68.04871368408203 48.46710205078125 68 48.64923095703125 68 L 49.64923095703125 68 C 49.83135986328125 68 50.00215148925781 68.04871368408203 50.14923095703125 68.13378143310547 C 50.29631042480469 68.04871368408203 50.46710205078125 68 50.64923095703125 68 L 51.64923095703125 68 C 51.83135986328125 68 52.00215148925781 68.04871368408203 52.14923095703125 68.13378143310547 C 52.29631042480469 68.04871368408203 52.46710205078125 68 52.64923095703125 68 L 53.64923095703125 68 C 53.83135986328125 68 54.00215148925781 68.04871368408203 54.14923095703125 68.13378143310547 C 54.29631042480469 68.04871368408203 54.46710205078125 68 54.64923095703125 68 L 55.64923095703125 68 C 55.83135986328125 68 56.00215148925781 68.04871368408203 56.14923095703125 68.13378143310547 C 56.29631042480469 68.04871368408203 56.46710205078125 68 56.64923095703125 68 L 57.64923095703125 68 C 57.83135986328125 68 58.00215148925781 68.04871368408203 58.14923095703125 68.13378143310547 C 58.29631042480469 68.04871368408203 58.46710205078125 68 58.64923095703125 68 L 59.64923095703125 68 C 59.83135986328125 68 60.00215148925781 68.04871368408203 60.14923095703125 68.13378143310547 C 60.29631042480469 68.04871368408203 60.46710205078125 68 60.64923095703125 68 L 61.64923095703125 68 C 61.83135986328125 68 62.00215148925781 68.04871368408203 62.14923095703125 68.13378143310547 C 62.29631042480469 68.04871368408203 62.46710205078125 68 62.64923095703125 68 L 63.64923095703125 68 C 63.83135986328125 68 64.00215148925781 68.04871368408203 64.14923095703125 68.13378143310547 C 64.29631042480469 68.04871368408203 64.46710205078125 68 64.64923095703125 68 L 65.64923095703125 68 C 65.83135986328125 68 66.00215148925781 68.04871368408203 66.14923095703125 68.13378143310547 C 66.29631042480469 68.04871368408203 66.46710205078125 68 66.64923095703125 68 L 67.64923095703125 68 C 67.83135986328125 68 68.00215148925781 68.04871368408203 68.14923095703125 68.13378143310547 C 68.29631042480469 68.04871368408203 68.46710205078125 68 68.64923095703125 68 L 69.64923095703125 68 C 69.83135986328125 68 70.00215148925781 68.04871368408203 70.14923095703125 68.13378143310547 C 70.29631042480469 68.04871368408203 70.46710205078125 68 70.64923095703125 68 L 71.64923095703125 68 C 71.83135986328125 68 72.00215148925781 68.04871368408203 72.14923095703125 68.13378143310547 C 72.29344940185547 68.05036163330078 72.46047210693359 68.00190734863281 72.63862609863281 68.00005340576172 L 72.50127410888672 67.74704742431641 C 72.41438293457031 67.58698272705078 72.37570953369141 67.41363525390625 72.38031005859375 67.24378967285156 C 72.23536682128906 67.15511322021484 72.11107635498047 67.02825164794922 72.02417755126953 66.86818695068359 L 71.54708862304688 65.98933410644531 C 71.46019744873047 65.82926940917969 71.42152404785156 65.65593719482422 71.42611694335938 65.486083984375 C 71.28118133544922 65.39741516113281 71.15689086914063 65.27055358886719 71.06999969482422 65.11048889160156 L 70.59291076660156 64.23163604736328 C 70.50601196289063 64.07157135009766 70.46733856201172 63.89822387695313 70.47193145751953 63.72837829589844 C 70.32699584960938 63.63970184326172 70.20270538330078 63.51284027099609 70.11581420898438 63.35277938842773 L 69.63872528076172 62.47392272949219 C 69.55183410644531 62.31385803222656 69.51315307617188 62.1405143737793 69.51775360107422 61.97066497802734 C 69.37281799316406 61.88199234008789 69.24852752685547 61.75513076782227 69.16163635253906 61.59506607055664 L 68.68454742431641 60.71622085571289 C 68.59764862060547 60.55615997314453 68.55897521972656 60.3828125 68.56356811523438 60.21296691894531 C 68.41863250732422 60.12429428100586 68.29433441162109 59.99742889404297 68.20744323730469 59.83736801147461 L 67.73035430908203 58.95851135253906 C 67.64346313476563 58.79844665527344 67.60478973388672 58.62510299682617 67.60939025878906 58.45525360107422 C 67.46445465087891 58.36658096313477 67.34015655517578 58.23971939086914 67.25326538085938 58.07965469360352 L 66.77617645263672 57.20079803466797 C 66.68928527832031 57.04073333740234 66.65060424804688 56.86739349365234 66.65519714355469 56.69754791259766 C 66.51026916503906 56.60887145996094 66.38597106933594 56.48200988769531 66.29907989501953 56.32194519042969 L 65.82199096679688 55.44309997558594 C 65.73508453369141 55.28300476074219 65.6964111328125 55.10970687866211 65.70101928710938 54.9398307800293 C 65.55608367919922 54.85115814208984 65.43179321289063 54.72430801391602 65.34490203857422 54.56424331665039 L 64.8677978515625 53.68538665771484 C 64.78090667724609 53.52532196044922 64.74223327636719 53.35198211669922 64.74683380126953 53.18213272094727 C 64.60189819335938 53.09346008300781 64.47760009765625 52.96659851074219 64.39070892333984 52.80653381347656 L 63.91361999511719 51.92767715454102 C 63.82672882080078 51.76761245727539 63.78805541992188 51.59427642822266 63.79264831542969 51.42443084716797 C 63.64771270751953 51.33575820922852 63.5234260559082 51.20890045166016 63.43653106689453 51.04883575439453 L 62.95943450927734 50.16997528076172 C 62.87254333496094 50.00991058349609 62.83386993408203 49.83657073974609 62.83846282958984 49.66672134399414 C 62.69352722167969 49.57804870605469 62.56923675537109 49.45118713378906 62.48234558105469 49.29112243652344 L 62.00525665283203 48.41226577758789 C 61.91836547851563 48.25220489501953 61.87968826293945 48.078857421875 61.88428497314453 47.90900802612305 C 61.73934936523438 47.82033538818359 61.61505889892578 47.69347381591797 61.52816772460938 47.53340911865234 L 61.05106735229492 46.65456390380859 C 60.96417617797852 46.49450302124023 60.92550277709961 46.32115936279297 60.93009948730469 46.15130996704102 C 60.78516387939453 46.06263732910156 60.66086959838867 45.93577575683594 60.57397842407227 45.77571105957031 L 60.09688949584961 44.89685821533203 C 60.0099983215332 44.73679351806641 59.97132110595703 44.56344604492188 59.97591781616211 44.39360046386719 C 59.83097839355469 44.30492401123047 59.70668411254883 44.17806243896484 59.61978912353516 44.01799774169922 L 59.1427001953125 43.13914489746094 C 59.05580902099609 42.97908020019531 59.01713562011719 42.80574798583984 59.021728515625 42.63589859008789 C 58.87679290771484 42.54722595214844 58.75250244140625 42.42036437988281 58.66561126708984 42.26029968261719 L 58.18852233886719 41.38144683837891 C 58.10161590576172 41.22135162353516 58.06293869018555 41.04805374145508 58.06755065917969 40.878173828125 C 57.92261505126953 40.78950119018555 57.79831695556641 40.66265106201172 57.71142196655273 40.50258636474609 L 57.23433303833008 39.62373352050781 C 57.14744186401367 39.46366882324219 57.10876846313477 39.29032516479492 57.11336517333984 39.12047576904297 C 56.96842956542969 39.03180313110352 56.84413528442383 38.90494155883789 56.75724411010742 38.74487686157227 L 56.28015518188477 37.86603164672852 C 56.19326019287109 37.70597076416016 56.15458679199219 37.53262329101563 56.1591796875 37.36277389526367 C 56.01424407958984 37.27410125732422 55.88994979858398 37.14724349975586 55.80305480957031 36.98717880249023 L 55.32596588134766 36.10832214355469 C 55.23907470703125 35.94825744628906 55.20040130615234 35.7749137878418 55.20499801635742 35.60506439208984 C 55.06006240844727 35.51639175415039 54.93576812744141 35.38953018188477 54.848876953125 35.22946548461914 L 54.37178802490234 34.35061264038086 C 54.28489303588867 34.19054794311523 54.2462158203125 34.01720428466797 54.25081253051758 33.84735870361328 C 54.10587692260742 33.75868225097656 53.98158264160156 33.63182067871094 53.89469146728516 33.47175598144531 L 53.4176025390625 32.59291076660156 C 53.33069229125977 32.43281555175781 53.29201889038086 32.259521484375 53.296630859375 32.08964157104492 C 53.15169525146484 32.00096893310547 53.02740478515625 31.87411880493164 52.94051361083984 31.71405410766602 L 52.46340942382813 30.83520126342773 C 52.37651824951172 30.67513656616211 52.33784484863281 30.50179290771484 52.34244537353516 30.33194351196289 C 52.197509765625 30.24327087402344 52.07321166992188 30.11640930175781 51.98632049560547 29.95634460449219 L 51.50923156738281 29.07748794555664 C 51.42234039306641 28.91742324829102 51.3836669921875 28.74408721923828 51.38826370239258 28.57424163818359 C 51.24332809448242 28.48556900024414 51.11903381347656 28.35870742797852 51.03214263916016 28.19864273071289 L 50.55504608154297 27.31978988647461 C 50.46815490722656 27.15972518920898 50.42948150634766 26.98638153076172 50.43407440185547 26.81653213500977 C 50.28913879394531 26.72785949707031 50.16484832763672 26.60099792480469 50.07795715332031 26.44093322753906 L 49.60086822509766 25.56207656860352 C 49.51397705078125 25.40201187133789 49.47529983520508 25.22866821289063 49.47989654541016 25.05881881713867 C 49.3349609375 24.97014617919922 49.21067047119141 24.84328842163086 49.123779296875 24.68322372436523 L 48.64667510986328 23.80437850952148 C 48.55978393554688 23.64431381225586 48.52111053466797 23.47097015380859 48.52571105957031 23.30112075805664 C 48.38077545166016 23.21244812011719 48.2564811706543 23.08558654785156 48.16958618164063 22.92552185058594 L 47.69249725341797 22.04666519165039 C 47.60560607910156 21.88660049438477 47.56693267822266 21.7132568359375 47.57152938842773 21.54340744018555 C 47.42659378051758 21.45473480224609 47.30230331420898 21.32787704467773 47.21540832519531 21.16781234741211 L 46.73831176757813 20.28895568847656 C 46.65142059326172 20.12889099121094 46.61274719238281 19.95555877685547 46.61734008789063 19.78570938110352 C 46.47240447998047 19.69703674316406 46.34811401367188 19.57017517089844 46.26122283935547 19.41011047363281 L 45.78413391113281 18.53125381469727 C 45.69722747802734 18.37116241455078 45.65855026245117 18.1978645324707 45.66316223144531 18.02798843383789 C 45.51822662353516 17.93931198120117 45.39392852783203 17.81246566772461 45.30703353881836 17.65240097045898 L 44.8299446105957 16.77354431152344 C 44.7430534362793 16.61347961425781 44.70438003540039 16.44013595581055 44.70897674560547 16.27029037475586 C 44.56404113769531 16.18161392211914 44.43974685668945 16.05475234985352 44.35285568237305 15.89468765258789 L 43.87576675415039 15.01583480834961 C 43.78887557983398 14.85577011108398 43.75019836425781 14.68243408203125 43.75479507446289 14.51258850097656 C 43.60985946655273 14.42391586303711 43.48556137084961 14.29705429077148 43.39866638183594 14.13698959350586 L 42.92157745361328 13.25813293457031 C 42.83468627929688 13.09806823730469 42.79601287841797 12.92472457885742 42.80060958862305 12.75487899780273 C 42.65567398071289 12.66620254516602 42.53137969970703 12.53934097290039 42.44448852539063 12.37927627563477 L 41.96739959716797 11.50042343139648 C 41.8805046081543 11.34035873413086 41.84182739257813 11.16701507568359 41.8464241027832 10.99716949462891 C 41.70148849487305 10.90849304199219 41.57719039916992 10.78163146972656 41.49029922485352 10.62156677246094 L 41.01321029663086 9.742721557617188 C 40.92630386352539 9.582626342773438 40.88763046264648 9.409332275390625 40.89224243164063 9.239452362060547 C 40.74730682373047 9.150779724121094 40.62301254272461 9.023929595947266 40.5361213684082 8.863864898681641 L 40.05903244018555 7.985012054443359 C 39.97213745117188 7.824947357177734 39.9334602355957 7.651603698730469 39.93805694580078 7.481758117675781 C 39.79312133789063 7.393085479736328 39.6688232421875 7.266220092773438 39.58193206787109 7.106155395507813 L 39.10484313964844 6.227298736572266 C 39.01795196533203 6.067234039306641 38.97927856445313 5.893898010253906 38.9838752746582 5.724052429199219 Z" stroke="none" fill="#bb94f4"/>
  </g>
</svg>
